<svg xmlns="http://www.w3.org/2000/svg" width="258.64" height="44.63" viewBox="0 0 258.64 44.63"><defs><style>.cls-1{fill:#ef8200;}.cls-2{fill:#231815;}</style></defs><g id="レイヤー_2" data-name="レイヤー 2"><g id="レイヤー_1-2" data-name="レイヤー 1"><path class="cls-1" d="M52.05,33.41H56a.24.24,0,0,0,.25-.27v-1c0-.18-.09-.27-.25-.27H52.05a.24.24,0,0,0-.26.27v1A.24.24,0,0,0,52.05,33.41Z"/><rect class="cls-1" x="51.41" y="33.9" width="5.04" height="1.6" rx="0.25"/><path class="cls-1" d="M56.81,33.93h2.48v.67h-2a.23.23,0,0,0-.26.25v1a.23.23,0,0,0,.26.26h6.27a.23.23,0,0,0,.25-.26v-1a.23.23,0,0,0-.25-.25H61.25v-.67h2.8a.23.23,0,0,0,.26-.25V32.61a.23.23,0,0,0-.26-.26h-2.8v-.78A.24.24,0,0,0,61,31.3H59.56a.25.25,0,0,0-.27.27v.78H56.81a.23.23,0,0,0-.25.26v1.07A.23.23,0,0,0,56.81,33.93Z"/><path class="cls-1" d="M64.16,40.76,63,40.61a.25.25,0,0,0-.22.07.26.26,0,0,0-.09.21,8.79,8.79,0,0,1-.1,1.46.25.25,0,0,1-.29.22c-.24,0-.28,0-.28,0s0,0,0-.21V38.91a.23.23,0,0,0-.25-.26H60.44a.23.23,0,0,0-.26.26V43a1.13,1.13,0,0,0,0,.23,2,2,0,0,0,0,.24l.06.2a.62.62,0,0,0,.2.34l.15.06a.93.93,0,0,0,.22.08l.53.08h1.43a1.88,1.88,0,0,0,.51-.06,1.32,1.32,0,0,0,.4-.13,1,1,0,0,0,.24-.28,1,1,0,0,0,.2-.39,1.26,1.26,0,0,0,0-.22q0-.15.06-.39a3.18,3.18,0,0,0,0-.34c0-.13,0-.29,0-.46a1.15,1.15,0,0,0,0-.2c0-.09,0-.2,0-.33V41A.25.25,0,0,0,64.16,40.76Z"/><path class="cls-1" d="M56.2,36.29A.24.24,0,0,0,56,36H52.16a.24.24,0,0,0-.26.27v1a.23.23,0,0,0,.26.26H56a.23.23,0,0,0,.25-.26Z"/><path class="cls-1" d="M59.6,38.65H58.31v-.49h4v1.39a.24.24,0,0,0,.26.27h1.27a.25.25,0,0,0,.27-.27V36.92a.25.25,0,0,0-.27-.27H56.78a.24.24,0,0,0-.25.27v2.77a.23.23,0,0,0,.25.26H58c0,.14,0,.27,0,.41a3.82,3.82,0,0,1-.09.44,2.92,2.92,0,0,1-.6,1.25,3.85,3.85,0,0,1-1,.7v-2.5A.23.23,0,0,0,56,40h-4a.23.23,0,0,0-.26.26v3.86a.23.23,0,0,0,.26.25h1.13a.23.23,0,0,0,.26-.25v-.25H56a.23.23,0,0,0,.25-.26v-.39l.64,1a.24.24,0,0,0,.33.08,4.6,4.6,0,0,0,1.43-1.08,4.23,4.23,0,0,0,.9-1.76,10.57,10.57,0,0,0,.29-2.54A.24.24,0,0,0,59.6,38.65Zm-4.85,2.78v1H53.44v-1Z"/><rect class="cls-1" x="51.9" y="38.02" width="4.3" height="1.45" rx="0.25"/><path class="cls-1" d="M78,39.46h-10a.23.23,0,0,0-.25.25V44a.23.23,0,0,0,.25.25h1.45a.23.23,0,0,0,.26-.25v-.25h6.56V44a.23.23,0,0,0,.25.25H78a.23.23,0,0,0,.25-.25V39.71A.23.23,0,0,0,78,39.46Zm-1.7,2.74v.4H69.77v-.4Zm0-1.49v.38H69.77v-.38Z"/><path class="cls-1" d="M79.32,33.56H78.26V32.29A.24.24,0,0,0,78,32H74.05v-.59a.23.23,0,0,0-.26-.25H72.31c-.18,0-.27.09-.27.25V32H68a.23.23,0,0,0-.26.26V33a.23.23,0,0,0,.26.26h4v.31H66.78a.23.23,0,0,0-.26.25v.88a.23.23,0,0,0,.26.25H72v.32H68a.23.23,0,0,0-.26.25V36a.24.24,0,0,0,.26.27h4v.27H67.63a.24.24,0,0,0-.27.27v.55a.24.24,0,0,0,.27.26H72v.29H66.9a.23.23,0,0,0-.25.25v.73a.23.23,0,0,0,.25.25H79.19a.23.23,0,0,0,.26-.25v-.73a.23.23,0,0,0-.26-.25H74.05v-.29h4.42a.24.24,0,0,0,.27-.26v-.55a.25.25,0,0,0-.27-.27H74.05V36.3H78a.25.25,0,0,0,.27-.27V34.94h1.06a.23.23,0,0,0,.25-.25v-.88A.23.23,0,0,0,79.32,33.56Zm-3,1.38v.32H74.05v-.32Zm0-1.69v.31H74.05v-.31Z"/><path class="cls-1" d="M94.47,42.09H92.4V40.61h1.7a.23.23,0,0,0,.26-.25v-1a.23.23,0,0,0-.26-.25H92.4V37.67h1.7a.23.23,0,0,0,.26-.26v-1a.24.24,0,0,0-.26-.27H92.4V34.75h1.88a.24.24,0,0,0,.27-.25V33.39a.25.25,0,0,0-.27-.27h-1.6c.08-.23.15-.47.22-.69s.13-.49.18-.71a.28.28,0,0,0,0-.22.27.27,0,0,0-.2-.12l-1.25-.15a.24.24,0,0,0-.28.19c-.08.33-.17.64-.26.93s-.16.53-.24.77h-1.7a5.61,5.61,0,0,0,.23-.65c.07-.25.14-.48.21-.7a.3.3,0,0,0,0-.23.26.26,0,0,0-.2-.13L88,31.23a.25.25,0,0,0-.29.17,18.08,18.08,0,0,1-1.44,3.38v-.67c0-.16-.09-.25-.27-.25h-.91v-2.1a.24.24,0,0,0-.26-.27H83.48a.24.24,0,0,0-.26.27v2.1H82a.23.23,0,0,0-.25.25v1.13a.23.23,0,0,0,.25.25h1.22v3.27l-.57.12-.71.13a.22.22,0,0,0-.21.28l.08,1.2a.35.35,0,0,0,.1.2.24.24,0,0,0,.22,0l.58-.11.51-.12V42a5.52,5.52,0,0,1,0,.56s0,.06-.15.06l-.31,0-.6-.05a.28.28,0,0,0-.24.08.26.26,0,0,0-.07.22l0,1.07c0,.09.05.21.27.24l.72,0H84l.21,0,.26-.07a.74.74,0,0,0,.34-.25,1,1,0,0,0,.17-.43,4.22,4.22,0,0,0,.1-.62,3.13,3.13,0,0,0,0-.34V40l1.11-.37a.21.21,0,0,0,.15-.27l-.16-1.12a.4.4,0,0,0-.14-.19.25.25,0,0,0-.24,0l-.35.12-.37.11V35.49h.76a9,9,0,0,1-.67,1,.23.23,0,0,0,0,.29l.92,1.12a.26.26,0,0,0,.46,0l.14-.22v6.47a.23.23,0,0,0,.26.25h1.39c.18,0,.27-.09.27-.25v-.49h5.81a.23.23,0,0,0,.26-.25V42.34A.23.23,0,0,0,94.47,42.09Zm-3.92-1.48v1.48H88.66V40.61Zm0-2.94v1.45H88.66V37.67Zm0-2.92v1.41H88.66V34.75Z"/><path class="cls-1" d="M109.54,34.94H107v-3a.24.24,0,0,0-.27-.26h-1.38a.25.25,0,0,0-.28.26v3h-3.7V32a.25.25,0,0,0-.27-.27H99.65a.24.24,0,0,0-.26.27v3h-2.6a.25.25,0,0,0-.26.28v1.24a.24.24,0,0,0,.26.26h2.6v3a8.07,8.07,0,0,0,0,.83,5,5,0,0,0,.17.86,3.22,3.22,0,0,0,.38.85,2.8,2.8,0,0,0,.67.76,4.75,4.75,0,0,0,2.45,1,10.1,10.1,0,0,0,1.28.08,17.76,17.76,0,0,0,2.47-.2l.71-.1a.24.24,0,0,0,.23-.3l-.21-1.31a.25.25,0,0,0-.31-.23l-.7.11a13.61,13.61,0,0,1-2.95.13,3.19,3.19,0,0,1-1.69-.55,1.43,1.43,0,0,1-.49-.82,5.29,5.29,0,0,1-.11-1.09v-3H105v2.05c0,.17.1.26.28.26h1.38a.24.24,0,0,0,.27-.26V36.72h2.58a.24.24,0,0,0,.26-.26V35.22A.25.25,0,0,0,109.54,34.94Z"/><path class="cls-1" d="M122.7,41.65,121.62,41a.34.34,0,0,0-.28-.07.32.32,0,0,0-.19.16,7.66,7.66,0,0,1-.59.74,1.3,1.3,0,0,1-.76.39A1.09,1.09,0,0,1,119,42a1.26,1.26,0,0,1-.54-.62c-.08-.18-.15-.36-.22-.54l-.21-.53c-.08-.19-.16-.38-.25-.56a2.68,2.68,0,0,0-2.47-1.4,2,2,0,0,0-.56.1,2.52,2.52,0,0,0-.33.13c.4-1,.82-2,1.24-2.93s.93-2,1.43-3.07a.29.29,0,0,0-.17-.44l-1.18-.53a.31.31,0,0,0-.42.13.09.09,0,0,0,0,.07l-.27.53c-.87,1.78-1.66,3.59-2.37,5.39s-1.39,3.66-2.05,5.52a.33.33,0,0,0,.2.42l1.24.4h.1a.41.41,0,0,0,.16,0,.31.31,0,0,0,.18-.19l.47-1.3c.09-.24.19-.51.31-.78a4.53,4.53,0,0,1,.42-.75,3.54,3.54,0,0,1,.57-.59,1.64,1.64,0,0,1,.7-.34.76.76,0,0,1,.69.1,1.78,1.78,0,0,1,.47.59,2.17,2.17,0,0,1,.19.41l.18.44.17.4.16.37A2.79,2.79,0,0,0,118,43.66a3,3,0,0,0,1.61.44,3.46,3.46,0,0,0,2-.6,3.3,3.3,0,0,0,.69-.65l.55-.75a.36.36,0,0,0,.07-.25A.37.37,0,0,0,122.7,41.65Z"/><path class="cls-1" d="M136.81,42.3c-.62-.18-1.19-.36-1.71-.55s-1-.39-1.48-.59a12.48,12.48,0,0,1-1.41-.75,10.15,10.15,0,0,0,1.61-2.2,21.76,21.76,0,0,0,1.37-3.31h1.54a.25.25,0,0,0,.29-.27V33.44a.26.26,0,0,0-.29-.28h-5V31.51a.25.25,0,0,0-.28-.27H130a.25.25,0,0,0-.28.27v1.65h-5a.25.25,0,0,0-.28.28v1.19a.25.25,0,0,0,.28.27h8.32a13.54,13.54,0,0,1-.64,1.68,10.15,10.15,0,0,1-.93,1.67,8.58,8.58,0,0,1-.78,1,8,8,0,0,1-1.12-1.43,11.72,11.72,0,0,1-1.12-2.38.24.24,0,0,0-.32-.16l-1.35.35a.3.3,0,0,0-.18.14.28.28,0,0,0,0,.24,18.69,18.69,0,0,0,.91,2,10.87,10.87,0,0,0,1,1.63l.38.45.3.33-.42.24a12.63,12.63,0,0,1-1.94.93,21.31,21.31,0,0,1-2.22.74.37.37,0,0,0-.21.14.28.28,0,0,0,0,.2l.41,1.22a.25.25,0,0,0,.25.18l.1,0q1.11-.31,2-.66c.62-.22,1.21-.46,1.74-.71a9.38,9.38,0,0,0,.95-.5,9.1,9.1,0,0,0,.8-.51l.55.36a2.27,2.27,0,0,0,.34.21,20.92,20.92,0,0,0,2,.94,26.53,26.53,0,0,0,2.57.87.24.24,0,0,0,.22,0,.25.25,0,0,0,.13-.14l.41-1.22a.26.26,0,0,0,0-.21A.3.3,0,0,0,136.81,42.3Z"/><path class="cls-1" d="M150.23,33.11H140.12a.25.25,0,0,0-.19.09.28.28,0,0,0-.09.2v1.33a.26.26,0,0,0,.28.29h8.39v6.61h-8.26a.27.27,0,0,0-.3.29v1.34a.28.28,0,0,0,.09.2.29.29,0,0,0,.21.08h10a.27.27,0,0,0,.19-.08.28.28,0,0,0,.09-.2V33.4a.28.28,0,0,0-.09-.2A.25.25,0,0,0,150.23,33.11Z"/><path class="cls-1" d="M158,37h.06a.35.35,0,0,0,.19-.12l.84-1a.25.25,0,0,0,.07-.25.37.37,0,0,0-.13-.2c-.72-.53-1.45-1-2.16-1.53s-1.47-1-2.24-1.4a.29.29,0,0,0-.44.1l-.7,1.11a.34.34,0,0,0-.06.28.29.29,0,0,0,.18.18,48.69,48.69,0,0,1,4.21,2.79A.29.29,0,0,0,158,37Z"/><path class="cls-1" d="M165.07,35.14l-1.23-.64a.28.28,0,0,0-.25,0,.47.47,0,0,0-.19.16l-.33.59A17.17,17.17,0,0,1,161.23,38a13.4,13.4,0,0,1-2.4,2.23,11.29,11.29,0,0,1-2.18,1.28,22.6,22.6,0,0,1-2.36.87h-.06a.67.67,0,0,0-.15.14.36.36,0,0,0,0,.26l.44,1.3a.28.28,0,0,0,.27.22l.12,0A22.27,22.27,0,0,0,158,43a12.94,12.94,0,0,0,2.83-1.84,15.11,15.11,0,0,0,2.46-2.61,33.47,33.47,0,0,0,1.93-3h0v0A.29.29,0,0,0,165.07,35.14Z"/><path class="cls-1" d="M178,34a.38.38,0,0,0-.35-.21h-5.73c.15-.24.3-.48.44-.72s.33-.58.48-.88a.26.26,0,0,0,0-.21.24.24,0,0,0-.13-.15l-1.29-.58a.37.37,0,0,0-.21,0,.25.25,0,0,0-.16.14,23.11,23.11,0,0,1-1.9,3.24,31.23,31.23,0,0,1-2.35,3,.25.25,0,0,0-.06.2.27.27,0,0,0,.1.18l1.07.89a.25.25,0,0,0,.2.06.35.35,0,0,0,.19-.1c.44-.5.87-1,1.26-1.53s.77-1,1.14-1.57h5.57a26.26,26.26,0,0,1-2.28,3.91A43.07,43.07,0,0,1,171,43.3a.23.23,0,0,0,0,.37l1.11.89a.23.23,0,0,0,.17.07h0a.25.25,0,0,0,.18-.1c.93-1.06,1.82-2.16,2.64-3.27a30.51,30.51,0,0,0,2.25-3.55h0a22.28,22.28,0,0,0,1.11-2.44.54.54,0,0,0,0-.39Z"/><rect class="cls-1" x="180.67" y="36.89" width="11.73" height="2.02" rx="0.28"/><path class="cls-1" d="M207.13,38.92,206.07,38a.25.25,0,0,0-.41,0l-.47.49q-.49.53-1,1c-.35.32-.71.61-1,.87s-.68.5-1,.72l-.77.5V32.06a.27.27,0,0,0-.29-.29h-1.41a.26.26,0,0,0-.29.29v11a.45.45,0,0,0,.17.37l.8.67a.32.32,0,0,0,.23.08l.17,0c.29-.14.58-.28.86-.43s.57-.32.85-.49a19,19,0,0,0,2.49-1.79,25.67,25.67,0,0,0,2.21-2.11.3.3,0,0,0,.08-.22A.3.3,0,0,0,207.13,38.92Z"/><path class="cls-1" d="M197.56,32.26h-1.37a.26.26,0,0,0-.29.28,33.72,33.72,0,0,1-.48,5.37A23.27,23.27,0,0,1,193.87,43a.25.25,0,0,0,0,.24.27.27,0,0,0,.16.14l1.25.52a.4.4,0,0,0,.15,0,.26.26,0,0,0,.26-.19,24.2,24.2,0,0,0,1.67-5.5,33.91,33.91,0,0,0,.51-5.73h0A.27.27,0,0,0,197.56,32.26Z"/><path class="cls-1" d="M87,27.2v.27a0,0,0,0,1,0,0h-.85v.55c0,.1,0,.18,0,.26a1.93,1.93,0,0,1,0,.24,1.23,1.23,0,0,1,0,.2,1.38,1.38,0,0,1,0,.2,1.5,1.5,0,0,1-.16.34,1.36,1.36,0,0,1-.32.31l-.11.09s0,0-.07,0l-.19-.23s0,0,0-.06l.12-.1a1.72,1.72,0,0,0,.19-.17,1.07,1.07,0,0,0,.13-.19.54.54,0,0,1-.25.06.66.66,0,0,1-.27-.06L85,28.83a.57.57,0,0,1-.11-.16.55.55,0,0,1-.06-.18.67.67,0,0,1,0-.2.77.77,0,0,1,.07-.27.62.62,0,0,1,.16-.2.43.43,0,0,1,.22-.12.59.59,0,0,1,.27,0,.5.5,0,0,1,.24.09l0-.25H84.08s0,0,0,0V27.2s0-.05,0-.05h1.61v-.32a0,0,0,0,1,0,0h.32a0,0,0,0,1,0,0v.32H87A0,0,0,0,1,87,27.2Zm-1.26,1.16a.45.45,0,0,0,0-.11.17.17,0,0,0,0-.1.2.2,0,0,0-.08-.08.28.28,0,0,0-.13,0,.2.2,0,0,0-.16,0,.31.31,0,0,0-.14.18s0,.06,0,.08a.32.32,0,0,0,.06.26.3.3,0,0,0,.19.08.23.23,0,0,0,.2-.06A.31.31,0,0,0,85.74,28.36Z"/><path class="cls-1" d="M90.9,28.9l-.05.17-.07.16-.09.14a.38.38,0,0,1-.11.11l-.15.07h-.18a.44.44,0,0,1-.15-.05.57.57,0,0,1-.13-.08l-.1-.11a.75.75,0,0,1-.07-.12,2.07,2.07,0,0,1-.18-.47,3,3,0,0,1-.1-.5c0-.16,0-.32,0-.48s0-.3,0-.43v-.16s0,0,0,0h.37s0,0,0,0v.15c0,.13,0,.26,0,.4a3.31,3.31,0,0,0,0,.44,3.54,3.54,0,0,0,.08.45,1.92,1.92,0,0,0,.16.42l0,.08a.12.12,0,0,0,.08,0,.08.08,0,0,0,.07,0l0-.09c0-.09.06-.17.08-.25l0-.13a.59.59,0,0,1,0-.13l0,0h0l.31.08,0,0s0,0,0,0l0,.16C90.93,28.79,90.91,28.85,90.9,28.9Zm1.4.07h-.37s0,0,0,0a7,7,0,0,0-.07-.79,4.45,4.45,0,0,0-.2-.76,0,0,0,0,1,0-.06L92,27.2s.05,0,.06,0a4.61,4.61,0,0,1,.22.83,6,6,0,0,1,.08.85A0,0,0,0,1,92.3,29Z"/><path class="cls-2" d="M.38,20.76a2.75,2.75,0,0,0,.77.92,3.39,3.39,0,0,0,1.06.57,3.63,3.63,0,0,0,1.29.16A3.87,3.87,0,0,0,4.85,22a3.56,3.56,0,0,0,1.07-.81,3.65,3.65,0,0,0,.7-1.17,4,4,0,0,0,.25-1.43V15.31a10.83,10.83,0,0,1,1.49-.23,6.82,6.82,0,0,1,1.63,0,4.51,4.51,0,0,1,1.47.46,2.74,2.74,0,0,1,1.11,1,1.89,1.89,0,0,1,.25,1.4A2,2,0,0,1,12,19.2a3.5,3.5,0,0,1-1.68.66A15.31,15.31,0,0,1,8.44,20h0a.17.17,0,0,0-.17-.14.19.19,0,0,0-.18.19v2.44a.18.18,0,0,0,.18.18.18.18,0,0,0,.18-.15h0c.52,0,1.07,0,1.62-.06a9.56,9.56,0,0,0,1.63-.26,6.64,6.64,0,0,0,1.49-.6,4.38,4.38,0,0,0,1.29-1.08,4.79,4.79,0,0,0,.74-1.27,4.35,4.35,0,0,0,.28-1.37,4.41,4.41,0,0,0-.16-1.39,4.51,4.51,0,0,0-.61-1.32h0a5.22,5.22,0,0,0-1.54-1.46,6.94,6.94,0,0,0-2-.81A10,10,0,0,0,9,12.65a12.5,12.5,0,0,0-2.13.21V10.41H11a.19.19,0,0,0,.17.13.19.19,0,0,0,.19-.18V8.06a.19.19,0,0,0-.19-.18A.19.19,0,0,0,11,8H6.87V5.4A.17.17,0,0,0,7,5.23a.19.19,0,0,0-.19-.18H4.39a.18.18,0,0,0-.18.18.17.17,0,0,0,.13.17V8H.4a.16.16,0,0,0-.15-.1.18.18,0,0,0-.18.18v2.3a.18.18,0,0,0,.18.18.18.18,0,0,0,.17-.13H4.33v3.23a12.14,12.14,0,0,0-1.63.95,7.41,7.41,0,0,0-1.4,1.27,6.29,6.29,0,0,0-.95,1.53A4.52,4.52,0,0,0,0,19.14v.21a2,2,0,0,0,0,.25A3,3,0,0,0,.38,20.76Zm4-4.35v2.22a1.61,1.61,0,0,1-.26.91,1,1,0,0,1-.78.44.62.62,0,0,1-.51-.14.78.78,0,0,1-.25-.51,1.31,1.31,0,0,1,0-.19,2.49,2.49,0,0,1,.57-1.57A5.47,5.47,0,0,1,4.33,16.41Z"/><path class="cls-2" d="M42.3,7.06c-.16,2.45-.23,4.88-.2,7.24s.11,4.79.26,7.24c0,0,0,0,0,0a.18.18,0,0,0-.14.18.19.19,0,0,0,.19.17h0L45,21.78a.19.19,0,0,0,.17-.19.19.19,0,0,0-.17-.17s0,0,0-.05c-.15-2.52-.23-5.05-.24-7.52s.08-5,.24-7.5c0,0,0,0,0-.06a.19.19,0,0,0,.17-.17A.18.18,0,0,0,45,5.93l-2.57-.18a.18.18,0,0,0,0,.36.11.11,0,0,0,0,.06Z"/><path class="cls-2" d="M56.79,7.76a3.93,3.93,0,0,0-1.11-.46,5,5,0,0,0-1.2-.15H47.56A.18.18,0,0,0,47.39,7a.18.18,0,0,0-.18.18V9.69a.18.18,0,0,0,.18.18.19.19,0,0,0,.18-.16h7.12l.2,0a.35.35,0,0,1,.24.08s0,.08,0,.28l-.15.37c-.08.19-.15.37-.21.53l-.2.52a.06.06,0,0,0,0,0,.19.19,0,0,0-.23.11.19.19,0,0,0,.11.23l2.45.88h.06a.18.18,0,0,0,.17-.12.16.16,0,0,0-.06-.19l0-.05.27-.63.27-.65a4.58,4.58,0,0,0,.19-.66,5.46,5.46,0,0,0,.1-.69h0a2.24,2.24,0,0,0-.3-1.22A2.36,2.36,0,0,0,56.79,7.76Z"/><path class="cls-2" d="M115.52,13.4a7.83,7.83,0,0,0-.77-2.53,7.27,7.27,0,0,0-1.61-2.1,8.33,8.33,0,0,0-2.35-1.49,9.62,9.62,0,0,0-2.7-.66,9.74,9.74,0,0,0-2.75.09,10.27,10.27,0,0,0-2.62.84,9.43,9.43,0,0,0-2.3,1.56,9.21,9.21,0,0,0-2.31,3.27,8.39,8.39,0,0,0-.67,3.79A6.55,6.55,0,0,0,97.82,18a5,5,0,0,0,.92,1.61,4.28,4.28,0,0,0,1.48,1.1,4.17,4.17,0,0,0,2,.33,3.77,3.77,0,0,0,2.06-.67A6,6,0,0,0,105.75,19c.17-.26.34-.53.49-.79a6.08,6.08,0,0,0,.38-.77c.11-.27.2-.5.27-.71l.18-.53a15.45,15.45,0,0,0,.75-3.58c.1-1.14.15-2.27.17-3.36a6.69,6.69,0,0,1,2,.59,4.94,4.94,0,0,1,1.61,1.22,4.84,4.84,0,0,1,1,1.74,5.08,5.08,0,0,1,.11,2.18,5.93,5.93,0,0,1-.75,2,6.39,6.39,0,0,1-1.43,1.65,4.14,4.14,0,0,1-.61.42c-.21.12-.43.24-.66.35a6.91,6.91,0,0,1-.7.29l-.72.27s0,0-.08,0a.18.18,0,0,0-.3.19l1,2.4a.18.18,0,0,0,.17.11l.07,0a.19.19,0,0,0,.11-.2h0a17.2,17.2,0,0,0,1.84-.74,8.07,8.07,0,0,0,1.7-1.08,8.67,8.67,0,0,0,1.84-2,8.2,8.2,0,0,0,1.07-2.49A7.11,7.11,0,0,0,115.52,13.4Zm-10.2-4c0,1-.1,2-.2,3a15,15,0,0,1-.65,3,7.65,7.65,0,0,1-1.11,2.33,1.73,1.73,0,0,1-1.24.73,1.51,1.51,0,0,1-1-.24,1.88,1.88,0,0,1-.59-.69,3.38,3.38,0,0,1-.3-.84,6.74,6.74,0,0,1-.1-.72.88.88,0,0,1,0-.16v-.18a6.2,6.2,0,0,1,.55-2.5A6.5,6.5,0,0,1,102.3,11h0a5.78,5.78,0,0,1,1.44-1A8,8,0,0,1,105.32,9.43Z"/><path class="cls-2" d="M194.4,13.38a5.88,5.88,0,0,0-2.56-1.75l.18-.53h0a.2.2,0,0,0,.18-.12.19.19,0,0,0-.12-.23L189.79,10a.18.18,0,0,0-.23.12.17.17,0,0,0,.09.21h0l-.3.88a9.89,9.89,0,0,0-1.74.09c-.54.08-1.09.18-1.64.31,0-.29,0-.59,0-.91V9.77h8a.18.18,0,0,0,.35-.07V7.49a.19.19,0,0,0-.19-.18.18.18,0,0,0-.16.1h-8c0-.34,0-.67,0-1s0-.69,0-1.06v0h0A.18.18,0,0,0,186,5h-2.57a.18.18,0,0,0-.18.18.18.18,0,0,0,.16.18h0c0,.37,0,.73,0,1.07v1H180a.18.18,0,0,0-.34.08v2.2a.18.18,0,0,0,.34.08h3.35c0,.39,0,.79,0,1.2s0,.89.06,1.29v.13l-.07,0a10,10,0,0,0-1.61,1,8.09,8.09,0,0,0-1.45,1.35,6.28,6.28,0,0,0-1,1.69,4.52,4.52,0,0,0-.28,2,3.91,3.91,0,0,0,.35,1.32,3.18,3.18,0,0,0,.81,1,3.56,3.56,0,0,0,1.15.66,3.93,3.93,0,0,0,1.39.18,6.47,6.47,0,0,0,1.23-.19,4.25,4.25,0,0,0,1-.39c.05.19.11.39.17.58s.15.45.23.66c0,0,0,0,0,0a.18.18,0,0,0-.09.2.19.19,0,0,0,.18.14h0l2.27-.63a.18.18,0,0,0,.13-.22.16.16,0,0,0-.18-.13.17.17,0,0,1,0-.07c-.12-.34-.22-.68-.31-1l-.27-1,0,0A14.89,14.89,0,0,0,189.26,17a22.5,22.5,0,0,0,1.64-3.15,3.46,3.46,0,0,1,1,.58,3,3,0,0,1,1.05,2,3.23,3.23,0,0,1-.12,1.23,3.1,3.1,0,0,1-.45.95,3.32,3.32,0,0,1-.68.67,4.23,4.23,0,0,1-.86.48l-1,.4h0a.18.18,0,0,0-.22-.09.19.19,0,0,0-.11.24l.94,2.37a.17.17,0,0,0,.17.11h.06a.18.18,0,0,0,.11-.19h0a7.56,7.56,0,0,0,2-.89,6.52,6.52,0,0,0,1.59-1.41,5.76,5.76,0,0,0,1-1.86,5.31,5.31,0,0,0,.21-2.19A5.11,5.11,0,0,0,194.4,13.38Zm-10.1,5.15a3.78,3.78,0,0,1-1.71.61.93.93,0,0,1-.76-.23,1.09,1.09,0,0,1-.28-.67v-.17a2.22,2.22,0,0,1,.17-.88,3.24,3.24,0,0,1,.48-.84,5.26,5.26,0,0,1,.73-.77,5.46,5.46,0,0,1,.79-.57c.07.58.15,1.16.24,1.73S184.17,18,184.3,18.53ZM186.13,14c.35-.11.68-.21,1-.29a5.87,5.87,0,0,1,1.06-.17l.29,0c-.31.61-.62,1.19-.95,1.75a11.43,11.43,0,0,1-1,1.48c-.09-.44-.16-.87-.21-1.31S186.18,14.53,186.13,14Z"/><path class="cls-2" d="M203.33,14.87c.49-1.33,1-2.71,1.42-4.09h3.73a.17.17,0,0,0,.14.07.18.18,0,0,0,.18-.18V8.38a.19.19,0,0,0-.18-.19.18.18,0,0,0-.17.14h-2.93l.36-1.24c.13-.45.26-.92.36-1.38,0,0,0,0,0,0h0a.18.18,0,0,0,0-.35l-2.5-.66a.18.18,0,0,0-.22.13.16.16,0,0,0,.11.21.13.13,0,0,0,0,.1l-.22.85c-.1.4-.21.8-.32,1.21s-.22.78-.35,1.17h-3.48a.16.16,0,0,0-.16-.11.19.19,0,0,0-.19.18v2.27a.19.19,0,0,0,.19.18.17.17,0,0,0,.14-.09l.09,0H202c-.4,1.2-.83,2.4-1.27,3.56s-1,2.42-1.5,3.65a0,0,0,0,0,0,0,.17.17,0,0,0-.2.11.17.17,0,0,0,.1.23l2.37,1h.07a.18.18,0,0,0,.1-.32l0,0C202.28,17.6,202.84,16.22,203.33,14.87Z"/><path class="cls-2" d="M236.36,15.58c.1-.21.2-.42.29-.64a3.66,3.66,0,0,0,.25-1.37h0a1.87,1.87,0,0,0-.38-1.07,2.38,2.38,0,0,0-.81-.66,3.65,3.65,0,0,0-1-.33,6.63,6.63,0,0,0-1.05-.1h-5.3a.17.17,0,0,0-.16-.12.19.19,0,0,0-.18.19v2.44a.18.18,0,0,0,.18.18.18.18,0,0,0,.16-.11H234l.15,0a1.57,1.57,0,0,1-.14.32l-.41.72,0,0a.18.18,0,0,0-.13.33l2.35,1.08h.07a.18.18,0,0,0,.17-.1.2.2,0,0,0,0-.22l0,0Z"/><path class="cls-2" d="M230.33,10.06a.16.16,0,0,0,.14.08.18.18,0,0,0,.18-.18V7.69a.18.18,0,0,0-.18-.18.18.18,0,0,0-.17.11h-4c.06-.4.1-.8.14-1.18s.08-.85.13-1.29c0,0,0,0,0,0a.18.18,0,0,0,.17-.16.2.2,0,0,0-.17-.2L224,4.53a.17.17,0,0,0-.07.34s0,0,0,.06l-.09.87c0,.33-.07.65-.08.94s-.05.57-.08.87h-3.52a.16.16,0,0,0-.16-.11.19.19,0,0,0-.19.18V10a.18.18,0,0,0,.33.1h3.2c-.27,1.89-.6,3.77-1,5.6s-.85,3.78-1.33,5.66v0a.19.19,0,0,0-.19.14.19.19,0,0,0,.14.22l2.49.63h.05a.17.17,0,0,0,.17-.14.19.19,0,0,0-.11-.21l0,0c.53-2,1-4,1.39-6s.73-3.94,1-5.93h4.39Z"/><path class="cls-2" d="M16.88,12.67v0h0c-.46-.68-.93-1.36-1.4-2s-1-1.31-1.44-1.95l0,0a.18.18,0,0,0-.21-.29L11.67,9.83a.18.18,0,0,0,0,.25.17.17,0,0,0,.15.07l.09,0s0,0,0,.06c.48.6.95,1.23,1.39,1.85s.88,1.28,1.3,1.94l0,0a.17.17,0,0,0,0,.23.16.16,0,0,0,.15.09l.1,0L17.06,13a.17.17,0,0,0,.07-.24A.18.18,0,0,0,16.88,12.67Z"/><path class="cls-2" d="M21.4,12.22V14a.18.18,0,0,0,.18.18.17.17,0,0,0,.17-.13h9.62a23.23,23.23,0,0,0,.41,3.74,8.07,8.07,0,0,0,.89,2.64,4.48,4.48,0,0,0,1.22,1.43,2.34,2.34,0,0,0,1.43.51,1.91,1.91,0,0,0,1.41-.52,4.09,4.09,0,0,0,.85-2,14.56,14.56,0,0,0,.25-1.7c.07-.66.14-1.45.22-2.34a.18.18,0,0,0,0-.35l-1.26-.25-.58-.12h-.07l-.29-.06a.18.18,0,0,0-.21.14.18.18,0,0,0,.13.21.3.3,0,0,0,0,.1c0,.61-.08,1.12-.12,1.52l-.11.94c-.1.68-.16,1.06-.18,1.13a1.4,1.4,0,0,1-.08.17c-.06,0-.21-.06-.42-.59a12.81,12.81,0,0,1-.5-2.28,26.5,26.5,0,0,1-.22-3.65V12.3a.36.36,0,0,0-.39-.39H22c.3-.36.57-.73.83-1.09s.44-.63.64-.94V11a.18.18,0,0,0,.18.18.17.17,0,0,0,.17-.12h11.2a.18.18,0,0,0,.16.11A.18.18,0,0,0,35.4,11V9.1a.19.19,0,0,0-.18-.19.19.19,0,0,0-.17.13H24c.1-.18.18-.34.25-.48l.21-.4H36.19a.18.18,0,0,0,.35,0V6a.18.18,0,0,0-.18-.18.17.17,0,0,0-.17.13H25.4l.18-.59s0-.07,0-.1h0a.18.18,0,0,0,0-.36L23.16,4.4a.18.18,0,0,0-.21.15.17.17,0,0,0,.12.2,17.84,17.84,0,0,1-3.25,5.9l-.05.07a.18.18,0,0,0-.2.07.17.17,0,0,0,.05.25Z"/><path class="cls-2" d="M29.86,22.54a.19.19,0,0,0,.12,0,.2.2,0,0,0,.14-.06l1.54-1.7a.18.18,0,0,0,0-.25.18.18,0,0,0-.25,0l-.07-.08c-.53-.46-1-.89-1.53-1.27l-1.23-1,1.11-1.05c.38-.38.74-.76,1.08-1.15l0,0h.07a.2.2,0,0,0,.14-.06.17.17,0,0,0,0-.25l-1.77-1.52a.18.18,0,0,0-.26,0,.18.18,0,0,0,0,.23l0,0c-.38.44-.78.86-1.18,1.24s-.77.72-1.16,1c-1.1-.77-2.26-1.52-3.43-2.22h0a.18.18,0,0,0-.07-.19.18.18,0,0,0-.25,0l-1.32,1.75a.18.18,0,0,0,0,.25.21.21,0,0,0,.11,0,.18.18,0,0,0,.1,0l.08.07c.47.28.95.58,1.42.89s.88.59,1.33.91c-.66.45-1.33.85-2,1.22s-1.45.73-2.18,1a.28.28,0,0,0-.11,0,.17.17,0,0,0-.23,0,.17.17,0,0,0-.07.24l1.1,2a.16.16,0,0,0,.15.09l.09,0a.18.18,0,0,0,.09-.17h0a23.26,23.26,0,0,0,5.09-2.75l.07-.06,0,0c1.05.82,2.09,1.67,3.11,2.54l.08,0A.18.18,0,0,0,29.86,22.54Z"/><path class="cls-2" d="M50.2,16.87a.18.18,0,0,0-.18-.18H47.39a.18.18,0,0,0-.18.18.19.19,0,0,0,.15.17s0,0,0,.06l0,.91a3.39,3.39,0,0,0,.26,1.58,3.23,3.23,0,0,0,.83,1.1,3.72,3.72,0,0,0,1.25.7,8.14,8.14,0,0,0,1.53.36,11.28,11.28,0,0,0,1.66.12h.32c.46,0,.9,0,1.34,0s1.07-.06,1.55-.11l1.26-.13h.08a.17.17,0,0,0,.16.1h0a.18.18,0,0,0,.16-.2l-.23-2.44a.19.19,0,0,0-.19-.17.17.17,0,0,0-.16.15h-.08l-1.33.11-1.34.1a18.56,18.56,0,0,1-2.69-.06,5.62,5.62,0,0,1-.9-.15,1.31,1.31,0,0,1-.71-.38A1.32,1.32,0,0,1,50,18a2.82,2.82,0,0,1,0-.42c0-.13,0-.26.05-.4v0a.09.09,0,0,0,0-.05A.19.19,0,0,0,50.2,16.87Z"/><path class="cls-2" d="M62.33,22.54a.23.23,0,0,0,.11,0,.19.19,0,0,0,.07-.19,16.56,16.56,0,0,0,4.56-3.59,20,20,0,0,0,1.87-2.47,19.16,19.16,0,0,0,1.35-2.48A18.88,18.88,0,0,0,73,19a12.08,12.08,0,0,0,3.8,3.37h0a.19.19,0,0,0,.08.17.19.19,0,0,0,.1,0,.17.17,0,0,0,.15-.07l1.39-2a.19.19,0,0,0,0-.25.18.18,0,0,0-.2,0l0-.05a12.67,12.67,0,0,1-4.76-5,16.07,16.07,0,0,1-1.79-7.71V6a.35.35,0,0,0-.37-.39h-7.2A.17.17,0,0,0,64,5.55a.18.18,0,0,0-.18.18V8a.18.18,0,0,0,.18.18.18.18,0,0,0,.16-.11h4.78v.35A11.81,11.81,0,0,1,66.72,15a16.44,16.44,0,0,1-5.62,5.13l-.07.06a.17.17,0,0,0-.21,0,.17.17,0,0,0,0,.25l1.41,2A.18.18,0,0,0,62.33,22.54Z"/><path class="cls-2" d="M86.1,15.39,85,13.12a.17.17,0,0,0-.24-.08.16.16,0,0,0-.09.2h0l-.51.25a3.26,3.26,0,0,1-.5.21c-.06,0-.09,0-.1,0s-.13-.11-.19-.51a1.66,1.66,0,0,1,0-.32v-.34l0-.34c0-.11,0-.21,0-.28V6.06s0,0,0,0a.18.18,0,0,0,.14-.18.19.19,0,0,0-.19-.18H80.67a.18.18,0,0,0-.18.18.17.17,0,0,0,.13.18s0,0,0,0V12.5c0,.21,0,.42,0,.63a7.23,7.23,0,0,0,.1.91,3.2,3.2,0,0,0,.26.88,2.58,2.58,0,0,0,.51.77,2.17,2.17,0,0,0,.83.54,2.23,2.23,0,0,0,.89.19,2,2,0,0,0,.49-.06A7.59,7.59,0,0,0,85,15.93l.37-.16.42-.18,0,0a.16.16,0,0,0,.14.08.11.11,0,0,0,.08,0A.17.17,0,0,0,86.1,15.39Z"/><path class="cls-2" d="M93,5.36H90.42a.19.19,0,0,0-.19.18.17.17,0,0,0,.12.17v0l0,2.64c0,.68,0,1.34,0,2s0,1.27,0,1.89-.06,1.23-.09,1.78A14.87,14.87,0,0,1,90,15.69a8.31,8.31,0,0,1-.91,2.67A3.77,3.77,0,0,1,87.28,20l-.89.39h0a.19.19,0,0,0-.24-.07.18.18,0,0,0-.08.24l.15.32s0,0,0,0l.44.92.51,1.05a.18.18,0,0,0,.16.1.12.12,0,0,0,.08,0,.16.16,0,0,0,.1-.17h0l.9-.41a6.39,6.39,0,0,0,2.74-2.28,10.24,10.24,0,0,0,1.38-3.35c.14-.62.25-1.28.34-1.94a19.92,19.92,0,0,0,.17-2.07c0-.72,0-1.45,0-2.16s0-1.43,0-2.16l0-2.62s0,0,0,0a.18.18,0,0,0,.16-.18A.18.18,0,0,0,93,5.36Z"/><path class="cls-2" d="M135.76,11.94a.18.18,0,0,0-.18.14H118.72a.18.18,0,0,0-.18-.14.18.18,0,0,0-.18.18v2.65a.18.18,0,0,0,.18.18.18.18,0,0,0,.18-.16h16.86a.18.18,0,0,0,.18.16.18.18,0,0,0,.18-.18V12.12A.18.18,0,0,0,135.76,11.94Z"/><path class="cls-2" d="M157.25,12.52a.18.18,0,0,0-.18.14h-1.13V6.1a.35.35,0,0,0-.38-.39H140.83a.36.36,0,0,0-.39.39v6.56h-1.13a.16.16,0,0,0-.17-.14.18.18,0,0,0-.18.18v2.19a.18.18,0,0,0,.18.18.17.17,0,0,0,.17-.13h1.13v6.93s0,.05,0,.07a.17.17,0,0,0-.12.17.18.18,0,0,0,.18.18H143a.18.18,0,0,0,.18-.18.18.18,0,0,0-.15-.18.11.11,0,0,0,0-.06V15h1.73v6.42a.18.18,0,0,0-.13.17.18.18,0,0,0,.18.18h2.43a.18.18,0,0,0,.18-.18.18.18,0,0,0-.12-.17.43.43,0,0,0,0-.05V15H149v6.42a.16.16,0,0,0-.14.17.18.18,0,0,0,.18.18h2.25v.38a.18.18,0,0,0,.18.18.18.18,0,0,0,.18-.14h0l1.54.06.88,0a3.86,3.86,0,0,0,.77-.06,1.78,1.78,0,0,0,.51-.24.88.88,0,0,0,.34-.58c0-.16.07-.31.1-.46s0-.29.07-.43,0-.31,0-.54V15h1.14a.17.17,0,0,0,.17.13.18.18,0,0,0,.18-.18V12.7A.18.18,0,0,0,157.25,12.52Zm-14.18.14V8.06h1.73v4.6Zm4.28,0V8.06H149v4.6Zm6,2.29v4.11c0,.57-.06.7-.09.75s0,.06-.35.06l-.6,0-.69-.05V15Zm0-6.89v4.6h-1.73V8.06Z"/><path class="cls-2" d="M160.19,9.8a.16.16,0,0,0,.16-.11h3.18c-.3.67-.58,1.25-.83,1.74l-.57,1.12a.41.41,0,0,0,.1.51l1.21,1.15a.47.47,0,0,0,.5.07,3.71,3.71,0,0,1,2-.47,2.25,2.25,0,0,1,1.25.51,12.13,12.13,0,0,0-2.1.87,5.9,5.9,0,0,0-1.72,1.3,3,3,0,0,0-.83,2.44,2.91,2.91,0,0,0,.63,1.58,4,4,0,0,0,1.33,1,6.75,6.75,0,0,0,1.81.6,17,17,0,0,0,2,.27c.56,0,1.12.06,1.67.06h.41l1.88,0,1.25,0h0a.18.18,0,0,0,.17.13.18.18,0,0,0,.18-.18V20a.18.18,0,0,0-.18-.18.17.17,0,0,0-.17.14h-.07l-1.31,0c-.57,0-1.27,0-2.07,0a22.49,22.49,0,0,1-2.34-.12,6.4,6.4,0,0,1-1.85-.42c-.49-.2-.75-.47-.78-.82a1.34,1.34,0,0,1,.16-.76,1.87,1.87,0,0,1,.6-.66,4.18,4.18,0,0,1,1-.53,10.35,10.35,0,0,1,1.19-.4,9.93,9.93,0,0,1,.15,2.2v.07a.18.18,0,0,0,0,.35h2.27a.18.18,0,0,0,.08-.34s0,0,0-.05a10.37,10.37,0,0,0,0-1.37,8.59,8.59,0,0,0-.17-1.3l1.2-.16c.43-.05.83-.09,1.21-.11l1-.07.78,0h0a.19.19,0,0,0,.17.12.19.19,0,0,0,.18-.18v-2.3a.18.18,0,0,0-.35-.05h0l-1.1.11c-.44,0-1,.09-1.71.17s-1.4.18-2.15.32A4.19,4.19,0,0,0,168,12a4.27,4.27,0,0,0-2.67-.45l.4-.87c.14-.32.29-.63.43-1h8.71a.18.18,0,0,0,.17.11.18.18,0,0,0,.18-.18V7.35a.18.18,0,0,0-.18-.18.2.2,0,0,0-.17.11h-7.75c.06-.2.13-.39.19-.56s.16-.45.22-.67h0a.19.19,0,0,0,.18-.14.19.19,0,0,0-.13-.22L165.26,5a.17.17,0,0,0-.22.12.18.18,0,0,0,.09.21s0,0,0,0l-.22.81c-.08.19-.15.38-.21.56s-.11.34-.17.53h-4.17a.18.18,0,0,0-.16-.11.18.18,0,0,0-.18.18V9.62A.18.18,0,0,0,160.19,9.8Z"/><path class="cls-2" d="M216.13,19.1a.17.17,0,0,0-.23,0l-.05,0-1.58-.82c-.5-.25-1-.51-1.59-.76q.09-.95.15-1.8c0-.59,0-1.16,0-1.7s0-.81,0-1.1v-.49l0-.83s0-.06,0-.08a.17.17,0,0,0,.11-.17.19.19,0,0,0-.18-.18l-2.42.08a.18.18,0,0,0-.18.18.16.16,0,0,0,.12.16.22.22,0,0,0,0,.08l0,.87a4.09,4.09,0,0,1,0,.62c0,.25,0,.53,0,.85v1.35c0,.41,0,.85,0,1.29l-.16-.05-.29-.09a7.76,7.76,0,0,0-2.36-.23,4.63,4.63,0,0,0-1.6.4,2.67,2.67,0,0,0-1,.79,3.22,3.22,0,0,0-.47.86,2.73,2.73,0,0,0,.35,2.59A3.42,3.42,0,0,0,206.1,22a4.53,4.53,0,0,0,1.82.39,5.55,5.55,0,0,0,1.43-.17,4.47,4.47,0,0,0,1.23-.5,4.18,4.18,0,0,0,1-.8,3.79,3.79,0,0,0,.63-1c.4.2.79.41,1.17.62l1.23.68,0,0a.18.18,0,0,0,.08.2.16.16,0,0,0,.09,0,.19.19,0,0,0,.16-.09l1.24-2.07A.17.17,0,0,0,216.13,19.1ZM210,19a1.54,1.54,0,0,1-.8.7,3.25,3.25,0,0,1-1.24.26,2,2,0,0,1-.61-.09,1.1,1.1,0,0,1-.43-.24.5.5,0,0,1-.16-.34.63.63,0,0,1,.13-.42.75.75,0,0,1,.57-.33l.45,0h.31c.3,0,.6.12.91.2A8.57,8.57,0,0,1,210,19Z"/><path class="cls-2" d="M216.66,10.42l0,0-.74-.51-.1-.05-.23-.17-.34-.22-.42-.28-1-.67c-.37-.23-.73-.44-1.08-.64l-.79-.44h0a.17.17,0,0,0-.07-.2.18.18,0,0,0-.25,0l-1.26,2.05a.18.18,0,0,0,.06.25l.09,0a.22.22,0,0,0,.13-.06l0,0,.78.45c.32.18.65.38,1,.6l1,.61c.34.24.7.47,1,.69l.71.49s0,0,.06,0a.18.18,0,0,0,.06.21.19.19,0,0,0,.1,0,.18.18,0,0,0,.15-.07l1.42-1.92a.18.18,0,0,0,0-.25A.17.17,0,0,0,216.66,10.42Z"/><path class="cls-2" d="M236.51,18.92a.16.16,0,0,0-.14.16h0L235,19.3a11.33,11.33,0,0,1-1.32.17q-.68.08-1.32.09a9.7,9.7,0,0,1-1.31-.08l-.55-.11a1.68,1.68,0,0,1-.51-.22.25.25,0,0,1-.11-.15,1.15,1.15,0,0,1-.06-.28,2.41,2.41,0,0,1,0-.38c0-.13,0-.25,0-.35s0,0,0-.07a.19.19,0,0,0,.16-.18.18.18,0,0,0-.18-.18h-2.5a.18.18,0,0,0-.18.18.16.16,0,0,0,.14.17s0,0,0,.06v.88a2.24,2.24,0,0,0,.36,1.4,3.2,3.2,0,0,0,1,.93,4.45,4.45,0,0,0,1.28.56,7.47,7.47,0,0,0,1.37.25c.35,0,.7,0,1.05,0h.35c.45,0,.92-.05,1.39-.1l1.36-.18,1.37-.21.05,0a.19.19,0,0,0,.15.08h0a.18.18,0,0,0,.15-.2l-.41-2.33A.18.18,0,0,0,236.51,18.92Z"/><path class="cls-2" d="M258.36,18.48s0,0,0-.06l-8.18-8.3a4.63,4.63,0,0,0-1.34-.95,3.44,3.44,0,0,0-1.51-.31,3.8,3.8,0,0,0-1.51.36,4,4,0,0,0-1.29,1l-4,4.69h0a.17.17,0,0,0-.23,0,.18.18,0,0,0,0,.26l2,1.71a.19.19,0,0,0,.12,0,.2.2,0,0,0,.14-.06.17.17,0,0,0,0-.23l0,0,4-4.62a2.6,2.6,0,0,1,.36-.3.92.92,0,0,1,.45-.14.76.76,0,0,1,.44.13,4.65,4.65,0,0,1,.38.29l8.11,8.39,0,0a.18.18,0,0,0,0,.24.18.18,0,0,0,.13.06.21.21,0,0,0,.13-.05l2-1.89a.19.19,0,0,0,0-.26A.18.18,0,0,0,258.36,18.48Z"/><path class="cls-2" d="M124.54,2.71a1.66,1.66,0,0,1-.06.21,1.89,1.89,0,0,1-.09.21.87.87,0,0,1-.11.18l-.14.14-.18.08a.59.59,0,0,1-.23,0,.66.66,0,0,1-.2-.06.57.57,0,0,1-.16-.11.86.86,0,0,1-.13-.14l-.09-.15a2.49,2.49,0,0,1-.23-.59,3.5,3.5,0,0,1-.12-.63c0-.21,0-.42,0-.62s0-.38,0-.55l0-.2a.05.05,0,0,1,.06-.06h.43a.05.05,0,0,1,0,0,.05.05,0,0,1,0,0l0,.2c0,.15,0,.32,0,.5a5.25,5.25,0,0,0,0,.56,5.86,5.86,0,0,0,.1.58,3,3,0,0,0,.2.52l.06.11a.11.11,0,0,0,.09,0,.1.1,0,0,0,.09-.06.3.3,0,0,0,.06-.11,2,2,0,0,0,.1-.32.9.9,0,0,0,0-.16.94.94,0,0,1,0-.16l0,0s0,0,0,0l.4.09,0,0a0,0,0,0,1,0,.05s0,.12,0,.19A1.6,1.6,0,0,1,124.54,2.71Zm1.79.09h-.43a.05.05,0,0,1,0,0,.08.08,0,0,1,0,0,8.64,8.64,0,0,0-.09-1,5.74,5.74,0,0,0-.25-1s0-.06,0-.08l.4-.13s.06,0,.08,0a6.59,6.59,0,0,1,.27,1.06,6.59,6.59,0,0,1,.11,1.08S126.37,2.8,126.33,2.8Z"/><path class="cls-2" d="M132,3.24a1.78,1.78,0,0,1-.54.21l-.57.1s-.07,0-.08-.06l-.05-.34s0-.08.07-.08l.4-.06a2,2,0,0,0,.39-.13,1,1,0,0,0,.4-.33.67.67,0,0,0,.1-.44.32.32,0,0,0-.09-.24.43.43,0,0,0-.2-.15.91.91,0,0,0-.25-.07l-.26,0H131l-.43.05-.43.08h-.06c-.05,0-.07,0-.08-.06L130,1.39a0,0,0,0,1,0,0l0,0h0l.31-.05h0a4.36,4.36,0,0,1,1.19-.09,1.4,1.4,0,0,1,.76.25.9.9,0,0,1,.34.67,1,1,0,0,1,0,.34,1,1,0,0,1-.12.32,1,1,0,0,1-.21.27A1.56,1.56,0,0,1,132,3.24Z"/><path class="cls-2" d="M145.19,3.19v.39s0,.06-.05.06h-.21l-.51,0L144,3.57a1.7,1.7,0,0,1-.34-.12.79.79,0,0,1-.25-.19.6.6,0,0,1-.16-.33,1.18,1.18,0,0,1,0-.42l0-.2,0,0a0,0,0,0,1,0,0l.4.06s.06,0,.06.07l0,.19a.44.44,0,0,0,0,.15.36.36,0,0,0,0,.11.2.2,0,0,0,0,.08h0A.56.56,0,0,0,144,3a1.81,1.81,0,0,0,.27.06l.33,0h.55S145.19,3.15,145.19,3.19ZM146.57.88v.38s0,.05-.06.05h-.84c.05.2.09.4.14.6s.1.39.16.59c0,0,0,.06,0,.06l-.38.11a.06.06,0,0,1-.07,0L145.3,2c-.06-.22-.11-.44-.15-.67h-1.87s-.05,0-.05-.05V.88s0-.05.05-.05h1.78c0-.13-.05-.24-.07-.36s0-.24-.05-.36A.07.07,0,0,1,145,0l.39,0s.06,0,.07.05,0,.27,0,.39l.06.39h.94S146.57.84,146.57.88Z"/><path class="cls-2" d="M153.24,1.19a1.19,1.19,0,0,1,.14.4,1.48,1.48,0,0,1,0,.42,1.44,1.44,0,0,1-.13.4,1.21,1.21,0,0,1-.24.35,1.44,1.44,0,0,1-.38.32,2.11,2.11,0,0,1-.46.21,3,3,0,0,1-.49.13,4.61,4.61,0,0,1-.5.07s-.06,0-.07-.05l0-.4s0-.06,0-.07l.35,0,.34-.08.32-.11a1.45,1.45,0,0,0,.29-.19,1.21,1.21,0,0,0,.22-.23.87.87,0,0,0,.14-.27.72.72,0,0,0,.06-.29.63.63,0,0,0-.08-.29.55.55,0,0,0-.19-.21,1.23,1.23,0,0,0-.26-.12l-.29,0h-.29l-.4,0-.39,0-.39.07-.39.07a.09.09,0,0,1-.08,0h0L150,.83s0-.06.06-.07l.41-.08.78-.11a3.56,3.56,0,0,1,.8,0,2.25,2.25,0,0,1,.36.06,1.28,1.28,0,0,1,.33.11,1.17,1.17,0,0,1,.3.19A1,1,0,0,1,153.24,1.19Z"/></g></g></svg>